<svg width="24" height="24" viewBox="0 0 24 24" fill="none" xmlns="http://www.w3.org/2000/svg">
<path d="M5.3325 2.99344C5.23371 2.88207 5.11379 2.79142 4.9797 2.72675C4.84561 2.66207 4.70002 2.62464 4.55137 2.61665C4.40271 2.60865 4.25394 2.63023 4.11369 2.68016C3.97344 2.73008 3.84449 2.80734 3.73431 2.90746C3.62414 3.00758 3.53493 3.12858 3.47187 3.26343C3.4088 3.39829 3.37313 3.54432 3.36691 3.69306C3.3607 3.8418 3.38407 3.9903 3.43566 4.12994C3.48726 4.26959 3.56606 4.3976 3.6675 4.50657L5.1675 6.16125C1.93781 8.31188 0.536252 11.3981 0.468752 11.5434C0.405239 11.6874 0.372437 11.8431 0.372437 12.0005C0.372437 12.1579 0.405239 12.3135 0.468752 12.4575C0.503439 12.5344 1.32469 14.3569 3.13969 16.1709C5.56594 18.5944 8.625 19.875 12 19.875C13.6403 19.8841 15.2659 19.5654 16.7813 18.9375L18.6647 21.0094C18.8664 21.2261 19.1454 21.3545 19.4412 21.3669C19.7369 21.3792 20.0257 21.2745 20.2447 21.0754C20.4638 20.8763 20.5956 20.5989 20.6115 20.3033C20.6274 20.0077 20.5261 19.7177 20.3297 19.4963L5.3325 2.99344ZM12 17.625C9.22594 17.625 6.79969 16.6191 4.78969 14.6363C3.99905 13.8534 3.31874 12.9665 2.7675 12C3.26156 11.1272 4.52906 9.19688 6.705 7.84782L15.1509 17.1394C14.1324 17.4646 13.0692 17.6285 12 17.625ZM23.5313 12.4575C23.4975 12.5334 22.6875 14.3325 20.9063 16.1288C20.8043 16.242 20.6803 16.3333 20.542 16.3972C20.4036 16.461 20.2537 16.4961 20.1014 16.5003C19.949 16.5045 19.7974 16.4777 19.6558 16.4216C19.5141 16.3654 19.3853 16.281 19.2773 16.1736C19.1692 16.0662 19.0841 15.9379 19.0271 15.7966C18.9701 15.6552 18.9424 15.5038 18.9457 15.3514C18.949 15.1991 18.9832 15.049 19.0462 14.9103C19.1093 14.7715 19.1999 14.647 19.3125 14.5444C20.0607 13.7836 20.7062 12.9282 21.2325 12C20.6816 11.0333 20.0012 10.1464 19.2103 9.36375C17.1994 7.38094 14.7741 6.375 12 6.375C11.6859 6.375 11.3719 6.38813 11.0625 6.41438C10.9134 6.43035 10.7626 6.41636 10.619 6.37322C10.4754 6.33009 10.3419 6.25869 10.2263 6.16321C10.1107 6.06773 10.0153 5.9501 9.94582 5.81725C9.87632 5.68439 9.83408 5.53897 9.82158 5.38955C9.80908 5.24014 9.82658 5.08973 9.87304 4.94717C9.9195 4.80461 9.994 4.67277 10.0921 4.55941C10.1903 4.44606 10.3101 4.35346 10.4445 4.28707C10.579 4.22068 10.7253 4.18183 10.875 4.17282C11.2434 4.14094 11.625 4.125 12 4.125C15.375 4.125 18.4341 5.40656 20.8584 7.83C22.6725 9.64406 23.4938 11.4675 23.5284 11.5434C23.5924 11.6872 23.6257 11.8428 23.6262 12.0002C23.6266 12.1576 23.5943 12.3133 23.5313 12.4575Z" fill="black"/>
</svg>
